<?xml version="1.0" encoding="UTF-8"?>
<svg id="Layer_1" xmlns="http://www.w3.org/2000/svg" version="1.1" viewBox="0 0 2808 363">
  <!-- Generator: Adobe Illustrator 30.2.1, SVG Export Plug-In . SVG Version: 2.1.1 Build 1)  -->
  <defs>
    <style>
      .st0 {
        fill-rule: evenodd;
      }

      .st0, .st1 {
        fill: #fff;
      }
    </style>
  </defs>
  <path class="st1" d="M1004.5,89.5h-72l87,267.5h77.5l87-267.5h-72l-54.5,201.5-53-201.5Z"/>
  <path class="st1" d="M0,0h74.5v357H0V0Z"/>
  <path class="st1" d="M148,0h74.5v357h-74.5V0Z"/>
  <path class="st1" d="M296,0h220.5v59.5h-146v85h136v59.5h-136v93.5h146v59.5h-220.5V0Z"/>
  <path class="st1" d="M562,0h70.5v357h-70.5V0Z"/>
  <path class="st1" d="M675,223c0-97.5,48.5-139.5,124-139.5s118.5,41.5,118.5,140.5v16h-173c2.5,58,20,77.5,53.5,77.5s43-15.5,46-42.5h70.5c-4.5,59-53.5,88-116.5,88s-123-42.5-123-140ZM848,193.5c-3.5-49-20.5-65-50-65s-48,16.5-53,65h103Z"/>
  <path class="st1" d="M1197.5,223c0-97.5,48.5-139.5,124-139.5s118.5,41.5,118.5,140.5v16h-173c2.5,58,20,77.5,53.5,77.5s43-15.5,46-42.5h70.5c-4.5,59-53.5,88-116.5,88s-123-42.5-123-140ZM1370.5,193.5c-3.5-49-20.5-65-50-65s-48,16.5-53,65h103Z"/>
  <path class="st1" d="M1774,0h74.5v297.5h140v59.5h-214.5V0Z"/>
  <path class="st0" d="M2006,223c0-102,47-139.5,107.5-139.5s57.5,17,68.5,35v-29h72v267.5h-70v-31.5c-10.5,21-40,37.5-72.5,37.5-64,0-105.5-41-105.5-140ZM2132,136c35,0,54,26.5,54,87s-19,87.5-54,87.5-55-27-55-87.5,20-87,55-87Z"/>
  <path class="st0" d="M2378.5,325.5v31.5h-70V0h70.5v118.5c12-18.5,40-35,70-35,59,0,106,37.5,106,139.5s-46,140-107.5,140-59-16.5-69-37.5ZM2429,136.5c35,0,55,26,55,86.5s-20,87.5-55,87.5-54-27-54-87.5,19-86.5,54-86.5Z"/>
  <path class="st1" d="M2584,277.5h70.5c1,28,16,41.5,42.5,41.5s41.5-12,41.5-33-11.5-26-36.5-32l-21.5-5.5c-61-15.5-91.5-32-91.5-82.5s47-82.5,107-82.5,105.5,23.5,107.5,79h-70.5c-1.5-24.5-16.5-35-38-35s-36.5,10.5-36.5,30.5,12,25.5,33,30.5l22,5.5c58,14.5,94.5,29,94.5,83s-48,86-113,86-109.5-26.5-111-85.5Z"/>
  <path class="st1" d="M1554,199.5c0-42,20-65,51-65s40,16,40,50.5v172h70.5v-183c0-62-35-90.5-86-90.5s-63,17.5-75.5,40.5v-34.5h-71.5v267.5h71.5v-157.5Z"/>
</svg>